<svg xmlns="http://www.w3.org/2000/svg" viewBox="0 0 64 64" role="img" aria-label="Neural favicon">
  <defs>
    <radialGradient id="heroGlow" cx="54%" cy="52%" r="56%">
      <stop offset="0%" stop-color="#d2dcff" stop-opacity="0.66" />
      <stop offset="72%" stop-color="#45548d" stop-opacity="0.2" />
      <stop offset="100%" stop-color="#090d1d" stop-opacity="0" />
    </radialGradient>
    <radialGradient id="lens" cx="50%" cy="50%" r="50%">
      <stop offset="0%" stop-color="#9fb0e9" stop-opacity="0.4" />
      <stop offset="100%" stop-color="#9fb0e9" stop-opacity="0" />
    </radialGradient>
  </defs>

  <rect width="64" height="64" rx="14" fill="#02040b" />
  <circle cx="36" cy="35" r="25" fill="url(#heroGlow)" />
  <circle cx="50" cy="12" r="7" fill="url(#lens)" />

  <g stroke="#9fb0e9" stroke-opacity="0.26" stroke-width="1">
    <line x1="12" y1="41" x2="22" y2="25" />
    <line x1="22" y1="25" x2="31" y2="32" />
    <line x1="31" y1="32" x2="41" y2="27" />
    <line x1="31" y1="32" x2="39" y2="39" />
    <line x1="39" y1="39" x2="48" y2="34" />
    <line x1="39" y1="39" x2="30" y2="46" />
    <line x1="30" y1="46" x2="19" y2="43" />
    <line x1="19" y1="43" x2="12" y2="41" />
    <line x1="48" y1="34" x2="55" y2="30" />
  </g>

  <ellipse
    cx="35"
    cy="36"
    rx="22"
    ry="8"
    transform="rotate(-14 35 36)"
    fill="none"
    stroke="#becbff"
    stroke-opacity="0.7"
    stroke-width="1.5"
  />

  <g fill="#eef3ff">
    <circle cx="12" cy="41" r="1.55" />
    <circle cx="22" cy="25" r="1.65" />
    <circle cx="31" cy="32" r="1.8" />
    <circle cx="41" cy="27" r="1.5" />
    <circle cx="39" cy="39" r="1.7" />
    <circle cx="48" cy="34" r="1.6" />
    <circle cx="30" cy="46" r="1.45" />
    <circle cx="19" cy="43" r="1.35" />
    <circle cx="55" cy="30" r="1.25" />
    <circle cx="19.8" cy="30.8" r="1.05" />
    <circle cx="27.5" cy="28.2" r="0.95" />
    <circle cx="44.8" cy="36.4" r="1.08" />
  </g>
</svg>
