<svg xmlns="http://www.w3.org/2000/svg" viewBox="0 0 1600 1000" role="img" aria-label="Signature Page visual">
  <defs>
    <linearGradient id="bg" x1="0" y1="0" x2="1" y2="1">
      <stop offset="0%" stop-color="#090d18"/>
      <stop offset="100%" stop-color="#050608"/>
    </linearGradient>
    <radialGradient id="glow" cx="0.56" cy="0.46" r="0.52">
      <stop offset="0%" stop-color="#8da1ff" stop-opacity="0.65"/>
      <stop offset="100%" stop-color="#8da1ff" stop-opacity="0"/>
    </radialGradient>
  </defs>
  <rect width="1600" height="1000" fill="url(#bg)"/>
  <rect width="1600" height="1000" fill="url(#glow)"/>
  <g opacity="0.28" stroke="#cbd6ff" stroke-width="2" fill="none">
    <path d="M120 760 C420 530 960 860 1450 260"/>
    <path d="M180 220 C520 60 1010 260 1420 760"/>
    <path d="M90 510 C430 410 910 620 1520 540"/>
  </g>
  <g fill="#eff3ff" opacity="0.8">
    <circle cx="210" cy="740" r="8"/>
    <circle cx="460" cy="560" r="7"/>
    <circle cx="730" cy="650" r="7"/>
    <circle cx="980" cy="540" r="8"/>
    <circle cx="1220" cy="430" r="7"/>
    <circle cx="1420" cy="290" r="8"/>
  </g>
  <g opacity="0.24">
    <rect x="1040" y="170" width="360" height="210" rx="24" fill="#101a33"/>
    <rect x="200" y="600" width="420" height="240" rx="24" fill="#11182e"/>
  </g>
</svg>
