<svg xmlns="http://www.w3.org/2000/svg" viewBox="0 0 1600 1000" role="img" aria-label="Direction Session visual">
  <defs>
    <linearGradient id="bg" x1="0" y1="0" x2="1" y2="1">
      <stop offset="0%" stop-color="#070c1b"/>
      <stop offset="100%" stop-color="#040507"/>
    </linearGradient>
    <radialGradient id="cool" cx="0.5" cy="0.45" r="0.55">
      <stop offset="0%" stop-color="#98abff" stop-opacity="0.54"/>
      <stop offset="100%" stop-color="#98abff" stop-opacity="0"/>
    </radialGradient>
  </defs>
  <rect width="1600" height="1000" fill="url(#bg)"/>
  <rect width="1600" height="1000" fill="url(#cool)"/>
  <g opacity="0.3" stroke="#dde7ff" stroke-width="2">
    <line x1="240" y1="760" x2="420" y2="480"/>
    <line x1="420" y1="480" x2="760" y2="330"/>
    <line x1="760" y1="330" x2="1080" y2="420"/>
    <line x1="1080" y1="420" x2="1360" y2="280"/>
    <line x1="760" y1="330" x2="940" y2="620"/>
    <line x1="420" y1="480" x2="700" y2="700"/>
  </g>
  <g fill="#f1f5ff" opacity="0.86">
    <circle cx="240" cy="760" r="8"/>
    <circle cx="420" cy="480" r="8"/>
    <circle cx="760" cy="330" r="9"/>
    <circle cx="1080" cy="420" r="8"/>
    <circle cx="1360" cy="280" r="8"/>
    <circle cx="940" cy="620" r="7"/>
    <circle cx="700" cy="700" r="7"/>
  </g>
  <g opacity="0.2" fill="#121b2f">
    <rect x="190" y="210" width="300" height="180" rx="22"/>
    <rect x="980" y="560" width="380" height="220" rx="22"/>
  </g>
</svg>
