<svg xmlns="http://www.w3.org/2000/svg" viewBox="0 0 1600 1000" role="img" aria-label="Launch Companion visual">
  <defs>
    <linearGradient id="bg" x1="0" y1="0" x2="1" y2="1">
      <stop offset="0%" stop-color="#070b16"/>
      <stop offset="100%" stop-color="#030407"/>
    </linearGradient>
    <radialGradient id="cool" cx="0.58" cy="0.5" r="0.6">
      <stop offset="0%" stop-color="#8fa4ff" stop-opacity="0.45"/>
      <stop offset="100%" stop-color="#8fa4ff" stop-opacity="0"/>
    </radialGradient>
  </defs>
  <rect width="1600" height="1000" fill="url(#bg)"/>
  <rect width="1600" height="1000" fill="url(#cool)"/>
  <g opacity="0.26" stroke="#c8d4ff" stroke-width="2">
    <path d="M180 760 L560 600 L840 700 L1180 420 L1430 280" fill="none"/>
    <path d="M180 280 L520 420 L840 320 L1180 600 L1430 740" fill="none"/>
    <line x1="560" y1="600" x2="520" y2="420"/>
    <line x1="840" y1="700" x2="840" y2="320"/>
    <line x1="1180" y1="420" x2="1180" y2="600"/>
  </g>
  <g fill="#e9f0ff" opacity="0.82">
    <circle cx="180" cy="760" r="7"/>
    <circle cx="560" cy="600" r="8"/>
    <circle cx="840" cy="700" r="7"/>
    <circle cx="1180" cy="420" r="8"/>
    <circle cx="1430" cy="280" r="7"/>
    <circle cx="180" cy="280" r="7"/>
    <circle cx="520" cy="420" r="8"/>
    <circle cx="840" cy="320" r="7"/>
    <circle cx="1180" cy="600" r="8"/>
    <circle cx="1430" cy="740" r="7"/>
  </g>
  <g opacity="0.18" fill="#101626">
    <rect x="640" y="450" width="300" height="120" rx="18"/>
  </g>
</svg>
